<?xml version="1.0" standalone="no"?>
<!DOCTYPE svg PUBLIC "-//W3C//DTD SVG 20010904//EN"
 "http://www.w3.org/TR/2001/REC-SVG-20010904/DTD/svg10.dtd">
<svg version="1.0" xmlns="http://www.w3.org/2000/svg"
 width="920.000000pt" height="320.000000pt" viewBox="0 0 920.000000 320.000000"
 preserveAspectRatio="xMidYMid meet">

<g transform="translate(0.000000,320.000000) scale(0.100000,-0.100000)"
fill="#000000" stroke="none">
<path d="M1237 1143 c-3 -5 -8 -33 -12 -63 -9 -72 8 -161 42 -229 27 -53 53
-77 53 -49 0 21 50 64 82 72 40 9 92 -16 106 -50 6 -16 12 -63 15 -105 3 -59
10 -87 33 -128 23 -44 77 -101 95 -101 3 0 3 30 1 68 -3 58 0 72 20 102 13 19
46 51 72 70 161 116 205 174 213 285 8 95 5 99 -59 70 -101 -46 -170 -58 -313
-53 -155 6 -239 29 -302 83 -23 19 -44 32 -46 28z"/>
</g>
</svg>
